<mxfile host="app.diagrams.net" modified="2023-08-06T02:25:53.619Z" agent="Mozilla/5.0 (Windows NT 10.0; Win64; x64) AppleWebKit/537.36 (KHTML, like Gecko) Chrome/115.0.0.0 Safari/537.36 Edg/115.0.1901.188" etag="XXQoBXVbJgcfU1EccY9A" version="21.6.6" type="github">
  <diagram name="add-post" id="2YBvvXClWsGukQMizWep">
    <mxGraphModel dx="880" dy="484" grid="1" gridSize="10" guides="1" tooltips="1" connect="1" arrows="1" fold="1" page="1" pageScale="1" pageWidth="850" pageHeight="1100" math="0" shadow="0">
      <root>
        <mxCell id="0" />
        <mxCell id="1" parent="0" />
        <mxCell id="1lpaeNYle8YA0kHS7N7Y-2" value="" style="shape=umlLifeline;perimeter=lifelinePerimeter;whiteSpace=wrap;html=1;container=1;dropTarget=0;collapsible=0;recursiveResize=0;outlineConnect=0;portConstraint=eastwest;newEdgeStyle={&quot;edgeStyle&quot;:&quot;elbowEdgeStyle&quot;,&quot;elbow&quot;:&quot;vertical&quot;,&quot;curved&quot;:0,&quot;rounded&quot;:0};participant=umlActor;" vertex="1" parent="1">
          <mxGeometry x="190" y="390" width="20" height="410" as="geometry" />
        </mxCell>
        <mxCell id="1lpaeNYle8YA0kHS7N7Y-6" value="" style="html=1;points=[];perimeter=orthogonalPerimeter;outlineConnect=0;targetShapes=umlLifeline;portConstraint=eastwest;newEdgeStyle={&quot;edgeStyle&quot;:&quot;elbowEdgeStyle&quot;,&quot;elbow&quot;:&quot;vertical&quot;,&quot;curved&quot;:0,&quot;rounded&quot;:0};" vertex="1" parent="1lpaeNYle8YA0kHS7N7Y-2">
          <mxGeometry x="5" y="80" width="10" height="310" as="geometry" />
        </mxCell>
        <mxCell id="1lpaeNYle8YA0kHS7N7Y-3" value="" style="shape=umlLifeline;perimeter=lifelinePerimeter;whiteSpace=wrap;html=1;container=1;dropTarget=0;collapsible=0;recursiveResize=0;outlineConnect=0;portConstraint=eastwest;newEdgeStyle={&quot;edgeStyle&quot;:&quot;elbowEdgeStyle&quot;,&quot;elbow&quot;:&quot;vertical&quot;,&quot;curved&quot;:0,&quot;rounded&quot;:0};participant=umlBoundary;" vertex="1" parent="1">
          <mxGeometry x="325" y="390" width="55" height="410" as="geometry" />
        </mxCell>
        <mxCell id="1lpaeNYle8YA0kHS7N7Y-10" value="" style="html=1;points=[];perimeter=orthogonalPerimeter;outlineConnect=0;targetShapes=umlLifeline;portConstraint=eastwest;newEdgeStyle={&quot;edgeStyle&quot;:&quot;elbowEdgeStyle&quot;,&quot;elbow&quot;:&quot;vertical&quot;,&quot;curved&quot;:0,&quot;rounded&quot;:0};" vertex="1" parent="1lpaeNYle8YA0kHS7N7Y-3">
          <mxGeometry x="22.5" y="70" width="10" height="320" as="geometry" />
        </mxCell>
        <mxCell id="1lpaeNYle8YA0kHS7N7Y-4" value="" style="shape=umlLifeline;perimeter=lifelinePerimeter;whiteSpace=wrap;html=1;container=1;dropTarget=0;collapsible=0;recursiveResize=0;outlineConnect=0;portConstraint=eastwest;newEdgeStyle={&quot;edgeStyle&quot;:&quot;elbowEdgeStyle&quot;,&quot;elbow&quot;:&quot;vertical&quot;,&quot;curved&quot;:0,&quot;rounded&quot;:0};participant=umlControl;" vertex="1" parent="1">
          <mxGeometry x="500" y="390" width="40" height="410" as="geometry" />
        </mxCell>
        <mxCell id="1lpaeNYle8YA0kHS7N7Y-13" value="" style="html=1;points=[];perimeter=orthogonalPerimeter;outlineConnect=0;targetShapes=umlLifeline;portConstraint=eastwest;newEdgeStyle={&quot;edgeStyle&quot;:&quot;elbowEdgeStyle&quot;,&quot;elbow&quot;:&quot;vertical&quot;,&quot;curved&quot;:0,&quot;rounded&quot;:0};" vertex="1" parent="1lpaeNYle8YA0kHS7N7Y-4">
          <mxGeometry x="15" y="70" width="10" height="310" as="geometry" />
        </mxCell>
        <mxCell id="1lpaeNYle8YA0kHS7N7Y-5" value="" style="shape=umlLifeline;perimeter=lifelinePerimeter;whiteSpace=wrap;html=1;container=1;dropTarget=0;collapsible=0;recursiveResize=0;outlineConnect=0;portConstraint=eastwest;newEdgeStyle={&quot;edgeStyle&quot;:&quot;elbowEdgeStyle&quot;,&quot;elbow&quot;:&quot;vertical&quot;,&quot;curved&quot;:0,&quot;rounded&quot;:0};participant=umlEntity;" vertex="1" parent="1">
          <mxGeometry x="630" y="390" width="40" height="410" as="geometry" />
        </mxCell>
        <mxCell id="1lpaeNYle8YA0kHS7N7Y-17" value="" style="html=1;points=[];perimeter=orthogonalPerimeter;outlineConnect=0;targetShapes=umlLifeline;portConstraint=eastwest;newEdgeStyle={&quot;edgeStyle&quot;:&quot;elbowEdgeStyle&quot;,&quot;elbow&quot;:&quot;vertical&quot;,&quot;curved&quot;:0,&quot;rounded&quot;:0};" vertex="1" parent="1lpaeNYle8YA0kHS7N7Y-5">
          <mxGeometry x="15" y="70" width="10" height="310" as="geometry" />
        </mxCell>
        <mxCell id="1lpaeNYle8YA0kHS7N7Y-20" value="Save()" style="html=1;align=left;spacingLeft=2;endArrow=block;rounded=0;edgeStyle=orthogonalEdgeStyle;curved=0;rounded=0;" edge="1" parent="1lpaeNYle8YA0kHS7N7Y-5">
          <mxGeometry x="-0.1111" y="15" relative="1" as="geometry">
            <mxPoint x="25" y="260" as="sourcePoint" />
            <Array as="points">
              <mxPoint x="55" y="290" />
            </Array>
            <mxPoint x="25" y="290" as="targetPoint" />
            <mxPoint as="offset" />
          </mxGeometry>
        </mxCell>
        <mxCell id="1lpaeNYle8YA0kHS7N7Y-7" value="onButtonClick()" style="html=1;verticalAlign=bottom;startArrow=oval;startFill=1;endArrow=block;startSize=8;edgeStyle=elbowEdgeStyle;elbow=vertical;curved=0;rounded=0;" edge="1" parent="1" source="1lpaeNYle8YA0kHS7N7Y-2" target="1lpaeNYle8YA0kHS7N7Y-3">
          <mxGeometry width="60" relative="1" as="geometry">
            <mxPoint x="240" y="470" as="sourcePoint" />
            <mxPoint x="300" y="470" as="targetPoint" />
            <Array as="points">
              <mxPoint x="280" y="470" />
            </Array>
          </mxGeometry>
        </mxCell>
        <mxCell id="1lpaeNYle8YA0kHS7N7Y-8" value="addPostView" style="text;html=1;align=center;verticalAlign=middle;resizable=0;points=[];autosize=1;strokeColor=none;fillColor=none;" vertex="1" parent="1">
          <mxGeometry x="307.5" y="360" width="90" height="30" as="geometry" />
        </mxCell>
        <mxCell id="1lpaeNYle8YA0kHS7N7Y-9" value="displayPopUp()" style="html=1;verticalAlign=bottom;endArrow=open;dashed=1;endSize=8;edgeStyle=elbowEdgeStyle;elbow=vertical;curved=0;rounded=0;" edge="1" parent="1" target="1lpaeNYle8YA0kHS7N7Y-6">
          <mxGeometry relative="1" as="geometry">
            <mxPoint x="350" y="520" as="sourcePoint" />
            <mxPoint x="270" y="520" as="targetPoint" />
          </mxGeometry>
        </mxCell>
        <mxCell id="1lpaeNYle8YA0kHS7N7Y-11" value="addInformation()" style="html=1;verticalAlign=bottom;startArrow=oval;startFill=1;endArrow=block;startSize=8;edgeStyle=elbowEdgeStyle;elbow=vertical;curved=0;rounded=0;" edge="1" parent="1" source="1lpaeNYle8YA0kHS7N7Y-6" target="1lpaeNYle8YA0kHS7N7Y-3">
          <mxGeometry width="60" relative="1" as="geometry">
            <mxPoint x="15" y="180" as="sourcePoint" />
            <mxPoint x="265" y="570" as="targetPoint" />
            <Array as="points">
              <mxPoint x="265" y="560" />
            </Array>
          </mxGeometry>
        </mxCell>
        <mxCell id="1lpaeNYle8YA0kHS7N7Y-12" value="addInformation(information)" style="html=1;verticalAlign=bottom;startArrow=oval;startFill=1;endArrow=block;startSize=8;edgeStyle=elbowEdgeStyle;elbow=vertical;curved=0;rounded=0;" edge="1" parent="1" target="1lpaeNYle8YA0kHS7N7Y-4">
          <mxGeometry width="60" relative="1" as="geometry">
            <mxPoint x="360" y="610" as="sourcePoint" />
            <mxPoint x="420" y="610" as="targetPoint" />
          </mxGeometry>
        </mxCell>
        <mxCell id="1lpaeNYle8YA0kHS7N7Y-15" value="addPostController" style="text;html=1;align=center;verticalAlign=middle;resizable=0;points=[];autosize=1;strokeColor=none;fillColor=none;" vertex="1" parent="1">
          <mxGeometry x="460" y="358" width="120" height="30" as="geometry" />
        </mxCell>
        <mxCell id="1lpaeNYle8YA0kHS7N7Y-16" value="Post" style="text;html=1;align=center;verticalAlign=middle;resizable=0;points=[];autosize=1;strokeColor=none;fillColor=none;" vertex="1" parent="1">
          <mxGeometry x="625" y="358" width="50" height="30" as="geometry" />
        </mxCell>
        <mxCell id="1lpaeNYle8YA0kHS7N7Y-18" value="insert()" style="html=1;verticalAlign=bottom;startArrow=oval;startFill=1;endArrow=block;startSize=8;edgeStyle=elbowEdgeStyle;elbow=vertical;curved=0;rounded=0;" edge="1" parent="1" target="1lpaeNYle8YA0kHS7N7Y-5">
          <mxGeometry width="60" relative="1" as="geometry">
            <mxPoint x="530" y="630" as="sourcePoint" />
            <mxPoint x="590" y="630" as="targetPoint" />
          </mxGeometry>
        </mxCell>
        <mxCell id="1lpaeNYle8YA0kHS7N7Y-21" value="alert()" style="html=1;verticalAlign=bottom;endArrow=open;dashed=1;endSize=8;edgeStyle=elbowEdgeStyle;elbow=vertical;curved=0;rounded=0;" edge="1" parent="1" target="1lpaeNYle8YA0kHS7N7Y-4">
          <mxGeometry relative="1" as="geometry">
            <mxPoint x="640" y="700" as="sourcePoint" />
            <mxPoint x="560" y="700" as="targetPoint" />
          </mxGeometry>
        </mxCell>
        <mxCell id="1lpaeNYle8YA0kHS7N7Y-22" value="alertAddSuccess()" style="html=1;verticalAlign=bottom;endArrow=open;dashed=1;endSize=8;edgeStyle=elbowEdgeStyle;elbow=vertical;curved=0;rounded=0;" edge="1" parent="1" source="1lpaeNYle8YA0kHS7N7Y-4">
          <mxGeometry relative="1" as="geometry">
            <mxPoint x="440" y="720" as="sourcePoint" />
            <mxPoint x="360" y="720" as="targetPoint" />
          </mxGeometry>
        </mxCell>
        <mxCell id="1lpaeNYle8YA0kHS7N7Y-23" value="displayPopUp()" style="html=1;verticalAlign=bottom;endArrow=open;dashed=1;endSize=8;edgeStyle=elbowEdgeStyle;elbow=vertical;curved=0;rounded=0;" edge="1" parent="1" source="1lpaeNYle8YA0kHS7N7Y-10">
          <mxGeometry relative="1" as="geometry">
            <mxPoint x="290" y="760" as="sourcePoint" />
            <mxPoint x="210" y="760" as="targetPoint" />
          </mxGeometry>
        </mxCell>
        <mxCell id="1lpaeNYle8YA0kHS7N7Y-24" value="Quản lí bài viết" style="shape=umlFrame;whiteSpace=wrap;html=1;pointerEvents=0;" vertex="1" parent="1">
          <mxGeometry x="120" y="310" width="660" height="530" as="geometry" />
        </mxCell>
      </root>
    </mxGraphModel>
  </diagram>
</mxfile>
